<svg width="16" height="19" viewBox="0 0 16 19" fill="none" xmlns="http://www.w3.org/2000/svg">
<path d="M6.4 19C5.51684 18.9957 4.80073 18.2831 4.792 17.4H7.992C7.99369 17.6139 7.9529 17.826 7.872 18.024C7.66212 18.5056 7.23345 18.8569 6.72 18.968H6.716H6.704H6.6896H6.6824C6.58945 18.9874 6.49492 18.9981 6.4 19ZM12.8 16.6H0V15L1.6 14.2V9.8C1.55785 8.67129 1.81275 7.5513 2.3392 6.552C2.86323 5.62521 3.75896 4.9671 4.8 4.744V3H8V4.744C10.0632 5.2352 11.2 7.0304 11.2 9.8V14.2L12.8 15V16.6Z" fill="#B0C3CC"/>
<circle cx="11" cy="4.77777" r="3.6" fill="#EC5252" stroke="white" stroke-width="1.2"/>
</svg>
